<svg width="221" height="155" viewBox="0 0 221 155" fill="none" xmlns="http://www.w3.org/2000/svg">
<g opacity="0.1">
<path d="M220.008 44.9028L217.051 40.8614C217.051 40.8614 217.051 30.0068 210.888 24.5873C204.725 19.1678 182.877 4.20988 169.823 0.385241C169.823 0.385241 166.51 -0.977362 161.183 1.42271C155.872 3.82279 149.926 6.54803 149.926 6.54803C149.926 6.54803 138.328 6.50156 128.217 9.4281C118.106 12.3546 86.5485 28.8765 71.6371 39.7156C64.6071 44.8254 57.9334 51.2669 52.8391 56.64V56.0515C52.8391 55.3393 52.39 54.4257 51.8171 53.9921L49.3396 52.0876C49.0299 51.8553 48.7822 51.8088 48.6273 51.9327L47.3421 52.0876C47.3421 52.0876 47.3111 52.0876 47.2956 52.0876H47.2337C47.0324 52.134 46.924 52.3663 46.924 52.7534L46.986 54.9986C47.0015 55.7109 47.3885 56.7174 47.8376 57.2593L49.9125 59.7678C45.8711 64.2273 43.3626 67.3861 43.3626 67.3861C43.3626 67.3861 18.727 86.4783 5.9524 99.1445C5.9524 99.1445 -1.27883 110.665 1.32254 122.418C3.92392 134.17 20.5386 146.712 35.6824 150.893C50.8261 155.074 58.7386 155.415 67.4408 152.922L69.3918 151.807L70.4757 148.044C72.7984 139.605 79.116 128.704 86.564 124.276C93.1758 120.343 99.7257 124.198 99.5864 131.77C99.5709 132.746 99.4779 133.737 99.3231 134.728L103.612 132.018L174.469 92.2385L176.172 91.1856L177.287 87.1132C179.222 78.9529 184.425 68.7023 191.858 64.2737C198.47 60.3407 205.019 64.1963 204.88 71.7527C204.88 72.3101 204.834 72.883 204.772 73.456C205.112 73.2082 212.746 67.7113 216.06 63.4066C219.451 58.9936 221.139 51.2514 220.008 44.8718V44.9028Z" fill="white"/>
<g style="mix-blend-mode:multiply" opacity="0.15">
<path d="M220.01 44.9028C219.917 45.6615 219.483 46.5441 218.369 47.4422C215.396 49.8268 201.181 58.2038 201.181 58.2038L216.665 45.646C216.665 45.646 218.028 44.175 217.052 40.8614C217.052 40.8614 217.052 30.0068 210.89 24.5873C210.812 24.5254 210.719 24.4325 210.642 24.3705L196.21 33.0263C196.21 33.0263 175.307 32.7166 170.537 34.0637C165.753 35.4109 139.352 43.5247 125.633 55.3702C111.914 67.2158 97.1414 101.003 97.1414 101.003C97.1414 101.003 69.378 123.981 65.1198 127.001C60.8616 130.02 58.6783 133.288 58.6783 133.288L44.3243 131.584C40.159 130.965 31.6426 127.945 21.5623 122.433C11.4819 116.921 8.46248 111.935 8.0444 110.262C7.62632 108.605 8.35413 106.205 7.31668 103.201C6.27923 100.182 6.68182 98.5096 6.68182 98.5096C6.46504 98.7264 6.23273 98.9432 6.01595 99.16C6.01595 99.16 -1.21523 110.68 1.38614 122.433C3.98752 134.186 20.6022 146.728 35.746 150.909C50.8897 155.09 58.8022 155.43 67.5044 152.937L69.4554 151.822L70.5393 148.06C72.862 139.621 79.1796 128.72 86.6275 124.291C93.2394 120.358 99.7893 124.214 99.6499 131.786C99.6344 132.761 99.5415 133.752 99.3867 134.743L103.676 132.033L174.532 92.254L176.236 91.2011L177.35 87.1287C179.286 78.9684 184.489 68.7178 191.921 64.2892C198.533 60.3562 205.083 64.2118 204.944 71.7682C204.944 72.3256 204.897 72.8985 204.835 73.4714C205.176 73.2237 212.81 67.7268 216.123 63.4221C219.514 59.0091 221.202 51.2669 220.072 44.8873L220.01 44.9028ZM119.222 96.3728C119.222 96.7135 119.067 96.9767 118.866 97.1316L118.045 97.6735C117.813 97.8284 117.503 97.8593 117.178 97.7509L112.037 95.9547C111.759 95.8618 111.495 95.6605 111.279 95.4128C110.365 95.1805 109.575 94.8708 109.297 94.4992C108.538 93.4927 109.297 92.5791 109.297 92.5791C109.452 92.3314 110.055 92.4862 110.83 92.8114V91.5107C110.83 91.1546 110.954 90.9068 111.155 90.783L112.285 90.1326C112.548 90.0397 112.858 90.0552 113.121 90.1791L118.231 93.214C118.851 93.5392 119.331 94.3908 119.3 95.0876L119.238 96.3883L119.222 96.3728Z" fill="black"/>
</g>
<path d="M191.858 64.2893C184.425 68.7178 179.222 78.9684 177.287 87.1287L176.203 91.0772L183.419 94.8863C185.695 95.9393 188.621 95.7845 191.548 94.0502C198.438 89.9469 203.533 81.4459 204.028 73.4715H204.772C204.833 72.914 204.864 72.3566 204.88 71.7837C205.019 64.2273 198.469 60.3562 191.858 64.3047V64.2893Z" fill="#343433"/>
<path d="M204.091 72.5889C203.936 80.8111 198.718 89.792 191.564 94.0502C185.2 97.8284 178.897 94.1276 179.037 86.8499C179.192 78.6278 184.41 69.6468 191.564 65.3886C197.928 61.6105 204.23 65.3112 204.091 72.5889Z" fill="#575656"/>
<path d="M203.194 73.3786C203.055 80.904 198.27 89.1417 191.72 93.0437C185.882 96.5122 180.122 93.1057 180.246 86.4474C180.386 78.9065 185.17 70.6843 191.72 66.7822C197.542 63.3137 203.318 66.7203 203.194 73.3786Z" fill="#3A3939"/>
<path d="M201.178 75.6548C201.07 81.5698 197.369 88.0268 192.305 91.0927C187.799 93.8179 183.324 91.1546 183.433 85.9209C183.541 80.0059 187.242 73.5489 192.305 70.483C196.811 67.7578 201.286 70.4366 201.178 75.6548Z" fill="url(#paint0_linear_2008_496)"/>
<path d="M200.823 76.0884C200.714 81.7092 197.199 87.872 192.368 90.783C188.079 93.3689 183.821 90.8295 183.914 85.859C184.022 80.2227 187.537 74.0754 192.368 71.1644C196.657 68.5785 200.916 71.1179 200.823 76.0884Z" fill="#CCCBCA"/>
<path opacity="0.5" d="M195.976 70.1423C198.299 70.6378 199.971 72.7901 199.909 75.918C199.801 81.4769 196.332 87.5468 191.563 90.4269C189.736 91.5262 187.909 91.6965 186.438 91.1236C188.033 92.0991 190.2 92.1146 192.368 90.7985C197.199 87.8874 200.714 81.7246 200.823 76.1038C200.885 72.5579 198.763 70.2507 195.976 70.1578V70.1423Z" fill="white"/>
<path d="M197.336 78.5968C197.274 81.5853 195.401 84.868 192.83 86.4164C190.539 87.7945 188.278 86.4474 188.324 83.7841C188.386 80.7801 190.26 77.5129 192.83 75.9645C195.122 74.5864 197.383 75.9335 197.336 78.5813V78.5968Z" fill="#E7E8E7"/>
<path d="M86.5819 124.291C79.1494 128.72 72.8163 139.621 70.4936 148.06L69.7814 150.537L76.6254 154.099C78.9016 155.152 81.8282 154.997 84.7547 153.262C91.3356 149.345 96.2906 141.401 97.1422 133.752L99.3255 134.743C99.4804 133.752 99.5733 132.761 99.5888 131.786C99.7281 124.229 93.1782 120.374 86.5664 124.291H86.5819Z" fill="#343433"/>
<path d="M89.1986 123.13C88.347 123.378 87.4644 123.765 86.5818 124.291C80.8835 127.682 75.8357 134.883 72.7388 141.85C72.4291 143.26 72.2588 144.669 72.2433 146.062C72.1039 153.34 78.4061 157.041 84.7701 153.262C91.9239 149.02 97.1267 140.023 97.297 131.801C97.4054 126.258 93.7665 122.789 89.1986 123.13Z" fill="#575656"/>
<path d="M84.9234 126.01C83.1891 127.047 81.5787 128.379 80.1542 129.928C79.0858 131.166 78.0793 132.513 77.1193 133.922C74.8895 137.546 73.5269 141.711 73.4495 145.675C73.3256 152.333 79.0858 155.74 84.9234 152.271C91.4733 148.369 96.2425 140.147 96.3973 132.606C96.5212 125.948 90.761 122.541 84.9234 126.01Z" fill="#3A3939"/>
<path d="M94.4016 134.882C94.2932 140.797 90.5924 147.254 85.529 150.32C81.0231 153.046 76.5481 150.382 76.6565 145.149C76.7649 139.234 80.4657 132.777 85.529 129.711C90.035 126.985 94.51 129.664 94.4016 134.882Z" fill="url(#paint1_linear_2008_496)"/>
<path d="M94.0302 135.301C93.9218 140.921 90.4068 147.084 85.5757 149.995C81.2866 152.581 77.0284 150.042 77.1213 145.071C77.2297 139.435 80.7446 133.288 85.5757 130.377C89.8649 127.791 94.1231 130.33 94.0302 135.301Z" fill="#CCCBCA"/>
<path opacity="0.5" d="M89.1835 129.355C91.5062 129.85 93.1785 132.002 93.1165 135.13C93.0082 140.689 89.5397 146.759 84.7705 149.639C82.9433 150.738 81.1162 150.909 79.6452 150.336C81.2401 151.311 83.4079 151.311 85.5757 150.011C90.4068 147.1 93.9218 140.952 94.0302 135.316C94.0921 131.786 91.9707 129.478 89.1835 129.37V129.355Z" fill="white"/>
<path d="M90.5598 137.809C90.4978 140.797 88.6242 144.08 86.0538 145.629C83.7621 147.007 81.5014 145.66 81.5479 143.012C81.6098 140.008 83.4834 136.741 86.0538 135.192C88.3455 133.814 90.6062 135.161 90.5598 137.809Z" fill="#E7E8E7"/>
<path d="M57.1914 86.6021C71.8861 95.5211 85.311 100.383 97.1256 101.003C97.1256 101.003 105.719 81.3219 115.893 66.7357C115.893 66.7357 85.2491 52.7378 73.45 40.9542C73.45 40.9542 56.6959 52.6914 43.4722 68.4235C43.4722 68.4235 42.4813 77.6831 57.1759 86.6021H57.1914Z" fill="#141C1E"/>
<path d="M110.319 65.5899C107.516 64.2118 103.181 62.044 98.4425 59.4581C86.8602 53.156 78.4212 47.5351 73.3269 42.7195C69.7035 45.3673 56.6967 54.9367 45.5479 68.0984C45.5634 68.8261 47.0809 71.5669 48.1958 73.905C49.6513 75.9025 53.3676 80.0213 60.5368 84.3879C74.6586 92.9663 85.7144 97.0386 97.0644 97.8438C98.7987 94.0037 105.333 79.8975 113.865 67.2932C113.075 66.9216 111.96 66.3796 110.335 65.5744L110.319 65.5899Z" fill="#303E42"/>
<path opacity="0.7" d="M49.8968 63.2208L80.3081 48.3558C77.5364 46.3738 75.1982 44.4847 73.3246 42.7195C70.1658 45.0267 59.8842 52.5985 49.8968 63.2208Z" fill="#C5D0D3"/>
<path d="M128.233 9.41263C128.233 9.41263 152.9 16.5199 169.963 34.2186C170.165 34.1566 170.366 34.1102 170.521 34.0637C175.305 32.7166 196.194 33.0263 196.194 33.0263C196.194 33.0263 186.563 22.3111 175.77 16.1019C164.977 9.89266 149.927 6.54802 149.927 6.54802C149.927 6.54802 138.329 6.50154 128.218 9.42809L128.233 9.41263Z" fill="#141C1E"/>
<path d="M175.214 17.0619C165.211 11.3017 151.244 7.98801 149.804 7.66284C148.782 7.66284 140.529 7.75575 132.26 9.55194C134.877 10.4965 138.717 11.9985 143.177 14.1508C150.702 17.7741 161.448 23.9369 170.29 32.9333C173.634 32.0352 183.436 31.8494 191.101 31.8494C191.999 31.8494 192.819 31.8494 193.532 31.8494C190.265 28.5048 183.002 21.5523 175.198 17.0619H175.214Z" fill="#303E42"/>
<path opacity="0.2" d="M51.6488 77.7297C58.6787 69.2907 70.5242 58.6994 88.3622 53.6515C81.8433 49.6565 76.7954 46.0022 73.3269 42.7195C69.7035 45.3673 56.6967 54.9367 45.5479 68.0984C45.5634 68.8261 47.0809 71.5669 48.1958 73.905C48.8461 74.8031 49.961 76.1348 51.6488 77.7297Z" fill="white"/>
<path opacity="0.2" d="M142.619 13.8875C148.534 12.8965 158.165 12.9895 173.774 16.2721C163.91 11.0075 151.167 7.98801 149.804 7.66284C148.782 7.66284 140.529 7.75575 132.26 9.55194C134.769 10.45 138.392 11.8746 142.604 13.8721L142.619 13.8875Z" fill="white"/>
<path d="M47.6847 130.206L60.227 131.755C60.227 131.755 63.773 131.491 65.0427 137.004C65.0427 137.004 63.0762 138.258 53.7081 138.614C44.3401 138.97 40.2522 137.654 40.2522 137.654L42.9465 132.838C42.9465 132.838 44.2162 129.788 47.6693 130.206H47.6847Z" fill="#EEF5F9"/>
<path d="M7.30138 103.186C6.27942 100.228 6.65103 98.5561 6.66652 98.4941C6.44974 98.7109 6.21748 98.9277 6.0007 99.129C6.0007 99.129 3.61611 102.923 2.08316 108.389C2.26897 110.2 2.90381 112.693 4.57612 115.573C4.57612 115.573 6.51167 114.737 7.8743 108.714C7.8743 107.227 8.04462 105.369 7.28588 103.186H7.30138Z" fill="#EEF5F9"/>
<path d="M67.4718 152.937L69.4228 151.822L70.4603 148.23C67.1931 149.035 56.8341 151.064 42.3407 148.927C24.6885 146.325 4.34203 134.666 1.22968 121.705C1.27613 121.938 1.32258 122.185 1.36903 122.418C3.9704 134.17 20.5851 146.713 35.7288 150.893C50.8725 155.074 58.7851 155.415 67.4873 152.922L67.4718 152.937Z" fill="#515E61"/>
<path d="M204.341 68.0829C204.712 69.1823 204.913 70.421 204.882 71.7837C204.882 72.3411 204.836 72.914 204.774 73.4869C205.115 73.2392 212.749 67.7422 216.062 63.4376C217.425 61.6569 218.509 59.3497 219.252 56.7948C216.496 59.613 211.587 63.9795 204.341 68.0829Z" fill="#515E61"/>
<path d="M172.611 88.5068L102.684 128.038L99.5712 130.593C99.6022 130.98 99.6176 131.367 99.6021 131.77C99.5867 132.746 99.4938 133.737 99.3389 134.728L103.628 132.018L174.484 92.2385L176.188 91.1856L177.148 87.7171L172.626 88.4913L172.611 88.5068Z" fill="#515E61"/>
<path d="M10.012 126.954C14.9051 130.717 22.5698 135.765 29.321 137.623C34.9573 139.172 37.9922 133.752 39.6491 130.407C35.0657 128.967 28.7017 126.32 21.5324 122.418C13.9605 118.283 10.3681 114.428 8.88165 112.074C7.87516 114.799 6.60547 118.035 6.29578 118.98C5.87771 120.265 5.10348 123.207 10.012 126.97V126.954Z" fill="#303E42"/>
<g style="mix-blend-mode:multiply" opacity="0.2">
<path d="M3.9385 122.712V119.94C2.49845 117.215 1.53843 114.474 1.08938 113.049C0.826148 114.923 0.717767 116.89 0.857126 118.918C2.31266 121.21 3.92305 122.712 3.92305 122.712H3.9385Z" fill="black"/>
</g>
<g style="mix-blend-mode:multiply" opacity="0.2">
<path d="M38.3625 141.649L37.4024 144.653C58.0121 147.58 65.042 143.6 65.042 143.6L66.4356 140.457C51.679 145.241 37.9599 142.052 38.3625 141.665V141.649Z" fill="black"/>
</g>
<path d="M185.247 39.3129C185.247 39.3129 180.369 37.9038 170.738 39.2665C161.107 40.6291 133.901 48.139 120.073 67.6648C106.246 87.1906 102.034 99.8103 102.034 99.8103C102.034 99.8103 104.31 98.4942 110.241 95.0721C109.792 94.9018 109.451 94.7005 109.281 94.4837C108.522 93.4772 109.281 92.5636 109.281 92.5636C109.435 92.3159 110.039 92.4708 110.814 92.7959V91.4952C110.814 91.1391 110.937 90.8913 111.139 90.7674L112.269 90.1171C112.532 90.0242 112.842 90.0397 113.105 90.1636L115.892 91.8204C122.597 87.9648 132.12 82.5143 145.297 74.9889C178.527 56.0051 187.508 46.126 187.508 46.126L185.247 39.3284V39.3129Z" fill="#141C1E"/>
<path d="M110.813 92.796V91.4952C110.813 91.1391 110.937 90.8914 111.138 90.7675L112.269 90.1172C112.532 90.0243 112.842 90.0397 113.105 90.1636L114.777 91.1546C121.172 87.4848 130.2 82.313 142.634 75.2057L138.639 52.3663C131.222 56.9032 125.307 62.2453 121.002 68.3151C116.031 75.3296 112.315 81.4459 109.59 86.4164L109.962 92.5018C110.209 92.5637 110.488 92.6566 110.813 92.796Z" fill="#303E42"/>
<path d="M184.379 40.273C183.496 40.1027 181.561 39.793 178.619 39.793C177.333 39.793 175.986 39.8549 174.593 39.9633L178.572 52.2114C183.001 48.8513 185.323 46.699 186.221 45.8009L184.379 40.2575V40.273Z" fill="#303E42"/>
<path d="M148.052 72.0934C160.688 64.7538 169.514 58.8697 175.506 54.5031L170.721 40.4124C165.395 41.1866 156.538 43.4937 147.448 47.6745C145.792 48.4333 144.212 49.2385 142.664 50.0591L148.037 72.0934H148.052Z" fill="#303E42"/>
</g>
<defs>
<linearGradient id="paint0_linear_2008_496" x1="200.048" y1="72.5424" x2="183.139" y2="90.5663" gradientUnits="userSpaceOnUse">
<stop stop-color="#C1C0C0"/>
<stop offset="1" stop-color="#DEDDDC"/>
</linearGradient>
<linearGradient id="paint1_linear_2008_496" x1="93.2558" y1="131.755" x2="76.3623" y2="149.778" gradientUnits="userSpaceOnUse">
<stop stop-color="#C1C0C0"/>
<stop offset="1" stop-color="#DEDDDC"/>
</linearGradient>
</defs>
</svg>
