<svg width="38" height="38" viewBox="0 0 38 38" fill="none" xmlns="http://www.w3.org/2000/svg">
<rect y="6.95282" width="30.9082" height="30.9082" rx="10" transform="rotate(-13 0 6.95282)" fill="#383838" fill-opacity="0.4"/>
<g clip-path="url(#clip0_334_257)">
<path d="M21.8602 10.8849L12.7661 12.9845C11.5122 13.2739 10.728 14.529 11.0174 15.7829L12.5921 22.6035C12.8816 23.8573 14.1367 24.6416 15.3905 24.3521L17.0519 23.9685L19.5969 25.2704C19.8586 25.4135 20.1531 25.4467 20.4235 25.3837C20.6895 25.3223 20.9314 25.1695 21.0943 24.9391L22.8636 22.6268L24.4852 22.2524C25.7391 21.963 26.5233 20.7079 26.2338 19.454L24.6592 12.6334C24.3697 11.3796 23.1141 10.5954 21.8602 10.8849ZM19.6751 22.1656C19.2045 22.2742 18.7344 21.9804 18.6257 21.5098C18.5171 21.0392 18.8108 20.5691 19.2815 20.4604C19.7521 20.3518 20.2222 20.6455 20.3309 21.1162C20.4395 21.5868 20.1458 22.0569 19.6751 22.1656ZM19.7937 18.3252C19.6724 18.4197 19.4917 18.7781 19.5612 19.0788L19.5874 19.1924C19.66 19.5067 19.4646 19.8195 19.1502 19.892C18.8359 19.9646 18.5232 19.7692 18.4506 19.4549L18.4244 19.3412C18.2428 18.5546 18.6254 17.7562 19.0777 17.4045C19.4492 17.1158 19.7042 16.5271 19.3874 15.9171C19.2047 15.5666 18.8171 15.3244 18.4227 15.3143C18.035 15.3026 17.6946 15.4566 17.4608 15.7429C17.2302 16.0254 17.1451 16.3905 17.2269 16.7446C17.2994 17.0589 17.104 17.3717 16.7897 17.4442C16.4754 17.5168 16.1627 17.3214 16.0901 17.0071C15.9265 16.2983 16.0963 15.5688 16.5576 15.0049C17.0175 14.4401 17.7092 14.1272 18.4534 14.1482C19.2712 14.1689 20.0448 14.6518 20.4222 15.3789C20.9498 16.3934 20.6858 17.6331 19.7938 18.3258L19.7937 18.3252Z" fill="#0CBA70"/>
</g>
<defs>
<clipPath id="clip0_334_257">
<rect width="14" height="14" fill="white" transform="translate(10.4926 13.5093) rotate(-13)"/>
</clipPath>
</defs>
</svg>
