<svg width="47" height="47" viewBox="0 0 47 47" fill="none" xmlns="http://www.w3.org/2000/svg">
<rect x="9.81268" width="37.9132" height="37.9132" rx="14" transform="rotate(15 9.81268 0)" fill="#383838" fill-opacity="0.4"/>
<g clip-path="url(#clip0_334_261)">
<path d="M29.4179 28.5361L15.734 24.8695C15.3711 24.7723 15.0616 24.5349 14.8738 24.2095C14.6859 23.8841 14.635 23.4974 14.7322 23.1345L14.9156 22.4503C15.1101 21.7244 15.5849 21.1056 16.2357 20.7299C16.8865 20.3542 17.6598 20.2523 18.3857 20.4468L29.3328 23.3801C30.0587 23.5746 30.6775 24.0495 31.0533 24.7002C31.429 25.351 31.5308 26.1244 31.3363 26.8502L31.153 27.5344C31.0557 27.8973 30.8183 28.2068 30.4929 28.3946C30.1675 28.5825 29.7808 28.6334 29.4179 28.5361ZM16.0912 26.4319C14.9647 29.0296 19.1106 30.139 19.4328 27.3273L16.0912 26.4319ZM24.9858 28.8152C23.8592 31.4129 28.0052 32.5223 28.3274 29.7106L24.9858 28.8152ZM24.2259 20.5451L29.5798 21.9796L28.1525 18.034C27.9585 17.4974 27.6378 17.0157 27.2176 16.6297C26.7974 16.2438 26.2902 15.9651 25.7391 15.8173L25.5092 15.7557L24.2259 20.5451ZM24.1408 15.389L23.1145 15.114C22.4201 14.9305 21.6865 14.9614 21.01 15.2026C20.3334 15.4438 19.7457 15.8841 19.3241 16.4656L17.5436 18.9371C17.9512 18.9256 18.3584 18.9732 18.7523 19.0784L22.8575 20.1784L24.1408 15.389Z" fill="#0CBA70"/>
</g>
<defs>
<clipPath id="clip0_334_261">
<rect width="17" height="17" fill="white" transform="translate(17.6655 12.1873) rotate(15)"/>
</clipPath>
</defs>
</svg>
