<svg width="30" height="30" viewBox="0 0 30 30" fill="none" xmlns="http://www.w3.org/2000/svg">
<g clip-path="url(#clip0_1_2584)">
<path d="M17.5 23.75C17.5 25.125 16.375 26.25 15 26.25C13.625 26.25 12.5 25.125 12.5 23.75C12.5 22.375 13.625 21.25 15 21.25C16.375 21.25 17.5 22.375 17.5 23.75ZM1.66249 8.83751C1.19999 9.25001 0.74999 9.70001 0.32499 10.15C-0.15001 10.65 -0.11251 11.45 0.38749 11.9125C0.62499 12.1375 0.93749 12.25 1.23749 12.25C1.57499 12.25 1.91249 12.1125 2.14999 11.85C2.52499 11.45 2.91249 11.0625 3.31249 10.7C3.82499 10.2375 3.87499 9.45001 3.41249 8.93751C2.94999 8.42501 2.16249 8.37501 1.64999 8.83751H1.66249ZM7.97499 14.8875C7.47499 15.275 7.01249 15.7 6.58749 16.1625C6.11249 16.675 6.14999 17.4625 6.64999 17.925C6.88749 18.15 7.19999 18.2625 7.49999 18.2625C7.83749 18.2625 8.17499 18.125 8.41249 17.8625C8.74999 17.5 9.11249 17.1625 9.49999 16.8625C10.05 16.4375 10.15 15.65 9.72499 15.1125C9.29999 14.5625 8.51249 14.4625 7.97499 14.8875ZM16.9875 15.2125C18.725 15.6125 20.3375 16.5375 21.5625 17.85C21.8125 18.1125 22.1375 18.25 22.475 18.25C22.775 18.25 23.0875 18.1375 23.325 17.9125C23.825 17.4375 23.8625 16.65 23.3875 16.15C21.0875 13.6625 17.7125 12.325 14.3625 12.5C14.3375 12.5 14.3 12.5 14.275 12.5L9.04999 7.28751C10.95 6.60001 12.95 6.25001 15 6.25001C19.85 6.25001 24.525 8.28751 27.8375 11.85C28.0875 12.1125 28.4125 12.25 28.75 12.25C29.05 12.25 29.3625 12.1375 29.6 11.9125C30.1 11.4375 30.1375 10.65 29.6625 10.15C25.8875 6.08751 20.5375 3.75001 15 3.75001C12.2625 3.75001 9.61249 4.28751 7.12499 5.36251L2.13749 0.362512C1.64999 -0.124988 0.84999 -0.124988 0.36249 0.362512C-0.12501 0.850012 -0.12501 1.65001 0.36249 2.13751L27.8625 29.6375C28.1125 29.8875 28.425 30 28.75 30C29.075 30 29.3875 29.875 29.6375 29.6375C30.125 29.15 30.125 28.3625 29.6375 27.875L17 15.225L16.9875 15.2125Z" fill="#0CBA70"/>
</g>
<defs>
<clipPath id="clip0_1_2584">
<rect width="30" height="30" fill="white"/>
</clipPath>
</defs>
</svg>
