<svg width="21" height="21" viewBox="0 0 21 21" fill="none" xmlns="http://www.w3.org/2000/svg">
<g clip-path="url(#clip0_397_84)">
<path d="M13.8333 2.16667H13.6908C13.3467 1.19667 12.42 0.5 11.3333 0.5H9.66667C8.58 0.5 7.65333 1.19667 7.30917 2.16667H7.16667C4.86917 2.16667 3 4.03583 3 6.33333V16.3333C3 18.6308 4.86917 20.5 7.16667 20.5H13.8333C16.1308 20.5 18 18.6308 18 16.3333V6.33333C18 4.03583 16.1308 2.16667 13.8333 2.16667ZM6.33333 15.5C5.87333 15.5 5.5 15.1267 5.5 14.6667C5.5 14.2067 5.87333 13.8333 6.33333 13.8333C6.79333 13.8333 7.16667 14.2067 7.16667 14.6667C7.16667 15.1267 6.79333 15.5 6.33333 15.5ZM14.6667 15.5H9.66667C9.20667 15.5 8.83333 15.1267 8.83333 14.6667C8.83333 14.2067 9.20667 13.8333 9.66667 13.8333H14.6667C15.1267 13.8333 15.5 14.2067 15.5 14.6667C15.5 15.1267 15.1267 15.5 14.6667 15.5ZM6.33333 12.1667C5.87333 12.1667 5.5 11.7933 5.5 11.3333C5.5 10.8733 5.87333 10.5 6.33333 10.5C6.79333 10.5 7.16667 10.8733 7.16667 11.3333C7.16667 11.7933 6.79333 12.1667 6.33333 12.1667ZM14.6667 12.1667H9.66667C9.20667 12.1667 8.83333 11.7933 8.83333 11.3333C8.83333 10.8733 9.20667 10.5 9.66667 10.5H14.6667C15.1267 10.5 15.5 10.8733 15.5 11.3333C15.5 11.7933 15.1267 12.1667 14.6667 12.1667ZM6.33333 8.83333C5.87333 8.83333 5.5 8.46 5.5 8C5.5 7.54 5.87333 7.16667 6.33333 7.16667C6.79333 7.16667 7.16667 7.54 7.16667 8C7.16667 8.46 6.79333 8.83333 6.33333 8.83333ZM14.6667 8.83333H9.66667C9.20667 8.83333 8.83333 8.46 8.83333 8C8.83333 7.54 9.20667 7.16667 9.66667 7.16667H14.6667C15.1267 7.16667 15.5 7.54 15.5 8C15.5 8.46 15.1267 8.83333 14.6667 8.83333Z" fill="#6E6E6E"/>
</g>
<defs>
<clipPath id="clip0_397_84">
<rect width="20" height="20" fill="white" transform="translate(0.5 0.5)"/>
</clipPath>
</defs>
</svg>
