<svg width="21" height="21" viewBox="0 0 21 21" fill="none" xmlns="http://www.w3.org/2000/svg">
<g clip-path="url(#clip0_362_88)">
<path d="M14.6667 15.4938V20.4938H18C19.3807 20.4938 20.5 19.3745 20.5 17.9938V10.393C20.5002 9.96005 20.332 9.54404 20.0308 9.23298L12.9492 1.57712C11.6996 0.22517 9.59074 0.142162 8.23879 1.39169C8.17457 1.45107 8.1127 1.5129 8.05336 1.57712L0.98418 9.23048C0.673945 9.54283 0.499883 9.96525 0.5 10.4055V17.9938C0.5 19.3745 1.6193 20.4938 3 20.4938H6.33332V15.4938C6.34891 13.2215 8.18355 11.3658 10.3987 11.3124C12.6879 11.2572 14.6492 13.1444 14.6667 15.4938Z" fill="white"/>
</g>
<defs>
<clipPath id="clip0_362_88">
<rect width="20" height="20" fill="white" transform="translate(0.5 0.5)"/>
</clipPath>
</defs>
</svg>
